HIERARCHY
ROOT Hips
{
	OFFSET 0.000000 0.000000 0.000000
	CHANNELS 6 Xposition Yposition Zposition Zrotation Yrotation Xrotation 
	JOINT LHipJoint
	{
		OFFSET 0.000000 0.000000 0.000000
		CHANNELS 3 Zrotation Yrotation Xrotation
		JOINT LeftUpLeg
		{
			OFFSET 1.363060 -1.794630 0.839290
			CHANNELS 3 Zrotation Yrotation Xrotation
			JOINT LeftLeg
			{
				OFFSET 2.448110 -6.726130 0.000000
				CHANNELS 3 Zrotation Yrotation Xrotation
				JOINT LeftFoot
				{
					OFFSET 2.562200 -7.039590 0.000000
					CHANNELS 3 Zrotation Yrotation Xrotation
					JOINT LeftToeBase
					{
						OFFSET 0.157640 -0.433110 2.322550
						CHANNELS 3 Zrotation Yrotation Xrotation
						End Site
						{
							OFFSET 0.000000 0.000000 0.000000
						}
					}
				}
			}
		}
	}
	JOINT RHipJoint
	{
		OFFSET 0.000000 0.000000 0.000000
		CHANNELS 3 Zrotation Yrotation Xrotation
		JOINT RightUpLeg
		{
			OFFSET -1.305520 -1.794630 0.839290
			CHANNELS 3 Zrotation Yrotation Xrotation
			JOINT RightLeg
			{
				OFFSET -2.542530 -6.985550 0.000000
				CHANNELS 3 Zrotation Yrotation Xrotation
				JOINT RightFoot
				{
					OFFSET -2.568260 -7.056230 0.000000
					CHANNELS 3 Zrotation Yrotation Xrotation
					JOINT RightToeBase
					{
						OFFSET -0.164730 -0.452590 2.363150
						CHANNELS 3 Zrotation Yrotation Xrotation
						End Site
						{
							OFFSET 0.000000 0.000000 0.000000
						}
					}
				}
			}
		}
	}
	JOINT LowerBack
	{
		OFFSET 0.000000 0.000000 0.000000
		CHANNELS 3 Zrotation Yrotation Xrotation
		JOINT Spine
		{
			OFFSET 0.028270 2.035590 -0.193380
			CHANNELS 3 Zrotation Yrotation Xrotation
			JOINT Spine1
			{
				OFFSET 0.056720 2.048850 -0.042750
				CHANNELS 3 Zrotation Yrotation Xrotation
				JOINT Neck
				{
					OFFSET 0.000000 0.000000 0.000000
					CHANNELS 3 Zrotation Yrotation Xrotation
					JOINT Neck1
					{
						OFFSET -0.054170 1.746240 0.172020
						CHANNELS 3 Zrotation Yrotation Xrotation
						JOINT Head
						{
							OFFSET 0.104070 1.761360 -0.123970
							CHANNELS 3 Zrotation Yrotation Xrotation
							End Site
							{
								OFFSET 0.000000 0.000000 0.000000
							}
						}
					}
				}
				JOINT LeftShoulder
				{
					OFFSET 0.000000 0.000000 0.000000
					CHANNELS 3 Zrotation Yrotation Xrotation
					JOINT LeftArm
					{
						OFFSET 3.362410 1.200890 -0.311210
						CHANNELS 3 Zrotation Yrotation Xrotation
						JOINT LeftForeArm
						{
							OFFSET 4.983000 -0.000000 -0.000000
							CHANNELS 3 Zrotation Yrotation Xrotation
							JOINT LeftHand
							{
								OFFSET 3.483560 -0.000000 -0.000000
								CHANNELS 3 Zrotation Yrotation Xrotation
								JOINT LeftFingerBase
								{
									OFFSET 0.000000 0.000000 0.000000
									CHANNELS 3 Zrotation Yrotation Xrotation
									JOINT LeftHandIndex1
									{
										OFFSET 0.715260 -0.000000 -0.000000
										CHANNELS 3 Zrotation Yrotation Xrotation
										End Site
										{
											OFFSET 0.000000 0.000000 0.000000
										}
									}
								}
								JOINT LThumb
								{
									OFFSET 0.000000 0.000000 0.000000
									CHANNELS 3 Zrotation Yrotation Xrotation
									End Site
									{
										OFFSET 0.000000 0.000000 0.000000
									}
								}
							}
						}
					}
				}
				JOINT RightShoulder
				{
					OFFSET 0.000000 0.000000 0.000000
					CHANNELS 3 Zrotation Yrotation Xrotation
					JOINT RightArm
					{
						OFFSET -3.136600 1.374050 -0.404650
						CHANNELS 3 Zrotation Yrotation Xrotation
						JOINT RightForeArm
						{
							OFFSET -5.241900 -0.000000 -0.000000
							CHANNELS 3 Zrotation Yrotation Xrotation
							JOINT RightHand
							{
								OFFSET -3.444170 -0.000000 -0.000000
								CHANNELS 3 Zrotation Yrotation Xrotation
								JOINT RightFingerBase
								{
									OFFSET 0.000000 0.000000 0.000000
									CHANNELS 3 Zrotation Yrotation Xrotation
									JOINT RightHandIndex1
									{
										OFFSET -0.622530 -0.000000 -0.000000
										CHANNELS 3 Zrotation Yrotation Xrotation
										End Site
										{
											OFFSET 0.000000 0.000000 0.000000
										}
									}
								}
								JOINT RThumb
								{
									OFFSET 0.000000 0.000000 0.000000
									CHANNELS 3 Zrotation Yrotation Xrotation
									End Site
									{
										OFFSET 0.000000 0.000000 0.000000
									}
								}
							}
						}
					}
				}
			}
		}
	}
}
MOTION
Frames: 7
Frame Time: 0.008333
9.760021 18.154996 -45.689442 6.731874 10.881168 1.901517 -1.266293 2.352200 1.326046 -15.569900 -17.011556 -9.148291 -2.400027 8.299568 23.310084 0.569492 2.736161 11.189095 2.973700 -10.652400 -31.116200 -1.817734 -3.204680 0.927842 21.577921 26.614145 2.025234 1.354929 -9.374181 29.097723 7.921851 -27.187121 -21.625965 -0.174900 -2.693600 7.426800 6.457400 -2.065632 7.705585 8.922398 -1.817166 2.053099 -3.254580 -1.130693 -11.991161 1.410259 0.891792 -19.106376 -6.144087 2.738287 9.649720 -5.286600 0.905800 4.918300 -2.261041 -10.057371 1.733720 -86.554330 14.312015 -15.592559 23.454485 -24.117230 -5.553188 1.589246 0.859088 13.253738 9.305044 -22.864689 -3.282100 -7.125000 0.000000 0.000000 -13.119200 6.122600 11.970800 0.279681 12.060979 2.576748 88.261916 6.936390 -6.380371 -21.089953 24.394769 -5.993800 1.496722 0.675933 14.361525 -11.621652 -51.068267 10.189800 7.125000 0.000000 0.000000 61.814100 -75.664600 -48.130800 
9.771413 18.153928 -45.673185 6.864696 10.503270 1.871560 -1.250257 2.347894 1.363983 -15.771783 -16.722817 -9.160547 -2.386890 8.320026 23.389657 0.569035 2.715484 11.175021 2.748700 -10.276600 -29.877200 -1.824178 -3.192379 0.933353 21.244920 26.280336 1.691079 1.266187 -9.461185 29.328720 7.905255 -26.887405 -20.906721 -0.138400 -2.397700 6.606200 6.293550 -2.013245 7.697983 9.038857 -1.785295 2.335627 -3.125218 -1.085759 -11.870123 1.361607 1.057214 -19.402970 -6.025314 2.993658 9.635764 -5.217400 1.023600 4.985500 -2.279773 -10.075621 1.738059 -86.413922 14.266528 -15.458440 23.372101 -24.006966 -5.502153 1.606196 0.835359 13.653617 9.015197 -22.649533 -3.127700 -7.125000 0.000000 0.000000 -13.301500 6.375700 12.080300 0.282037 12.094009 2.546386 88.171479 7.048250 -7.318429 -20.325784 23.451839 -5.564007 1.519924 0.629500 16.047783 -7.945765 -48.682427 7.034000 7.125000 0.000000 0.000000 56.687200 -73.292400 -41.213900 
9.781381 18.148707 -45.653011 6.976160 10.203816 1.833318 -1.237594 2.341868 1.389376 -15.945679 -16.458473 -9.131963 -2.376873 8.332372 23.446672 0.555990 2.732436 11.172603 2.673200 -10.146300 -29.451700 -1.842805 -3.183384 0.925854 20.963718 25.868987 1.364296 1.167952 -9.561288 29.601847 7.845250 -26.484500 -20.138881 -0.111200 -2.149900 5.920100 6.166582 -1.957722 7.695463 9.066510 -1.724787 2.251670 -3.049549 -1.047848 -11.906286 1.458266 1.225764 -18.684629 -5.946678 3.123181 9.459699 -5.195700 1.118400 4.822300 -2.270741 -10.063475 1.747815 -86.322050 14.776170 -14.773928 23.433231 -24.007490 -5.489768 1.582682 0.803686 13.886303 8.870687 -21.888252 -2.979300 -7.125000 0.000000 0.000000 -13.372000 7.167500 11.937200 0.296669 12.052392 2.519510 88.230212 6.603365 -8.266651 -19.749591 22.769777 -5.289079 1.540994 0.588187 17.299684 -7.023891 -47.791899 6.251900 7.125000 0.000000 0.000000 54.901200 -72.521400 -38.932100 
9.792536 18.150961 -45.637347 7.160695 9.733504 1.850891 -1.223195 2.316159 1.417499 -16.171916 -16.010225 -9.224317 -2.365192 8.353419 23.524865 0.578733 2.662851 11.246863 2.663000 -10.128400 -29.393600 -1.860568 -3.154450 0.917632 20.456047 25.248501 0.810360 1.057162 -9.666625 29.877426 7.716029 -25.805552 -19.078190 -0.087700 -1.909600 5.255900 6.031688 -1.885361 7.776530 9.044493 -1.637888 2.238916 -2.992599 -0.997620 -11.953967 1.596371 1.380653 -18.361505 -5.929849 3.286908 9.389275 -5.199500 1.214900 4.764100 -2.265977 -10.041719 1.748513 -86.243068 15.073305 -14.224233 23.464771 -24.003592 -5.483517 1.589489 0.763482 14.275514 8.437694 -21.485170 -2.752800 -7.125000 0.000000 0.000000 -13.643000 7.634800 12.065700 0.302132 12.034910 2.514685 88.184640 6.353344 -9.450837 -19.223874 22.169293 -5.109061 1.566480 0.549818 19.129065 -6.363218 -48.401371 5.809600 7.125000 0.000000 0.000000 57.179200 -72.604600 -40.901600 
9.804284 18.154165 -45.624175 7.351977 9.381085 1.836771 -1.202173 2.291584 1.457615 -16.389866 -15.492655 -9.351171 -2.352965 8.373676 23.621838 0.712435 2.313538 11.443139 2.692200 -10.179200 -29.559000 -1.878050 -3.129762 0.915453 20.034569 24.744280 0.398267 0.961898 -9.759249 30.149648 7.586165 -25.255670 -18.404650 -0.072400 -1.735900 4.776400 5.836767 -1.808967 7.803363 9.040455 -1.564329 2.357660 -2.900597 -0.945707 -11.913509 1.965852 1.465899 -18.250617 -6.134078 3.365962 9.355423 -5.319200 1.257000 4.758300 -2.270641 -10.016844 1.738246 -86.082013 15.026234 -13.748153 23.363108 -23.889379 -5.450480 1.639836 0.730620 14.993045 7.862352 -21.742535 -2.537700 -7.125000 0.000000 0.000000 -14.023100 7.443800 12.477600 0.295725 12.044721 2.517702 88.075208 6.159350 -10.853801 -18.711835 21.589443 -4.967506 1.597064 0.491921 21.390571 -6.324993 -49.575066 5.886500 7.125000 0.000000 0.000000 60.627900 -73.137900 -44.394300 
9.817694 18.154284 -45.613494 7.544136 9.073786 1.834702 -1.196885 2.265932 1.469941 -16.604689 -15.097973 -9.457697 -2.334362 8.413381 23.747653 0.792704 2.090725 11.490653 2.764600 -10.303900 -29.966500 -1.909435 -3.110595 0.889987 19.723174 24.561378 0.177783 0.885431 -9.835763 30.381868 7.482052 -24.857398 -17.993297 -0.072800 -1.740700 4.789500 6.035061 -1.807826 8.145588 8.667406 -1.492084 2.051171 -3.102513 -0.948719 -12.247985 2.342956 1.547955 -17.599710 -6.087614 3.375409 9.383341 -5.357500 1.304500 4.662500 -2.239561 -9.957820 1.758691 -85.745760 15.475318 -12.961199 23.313436 -23.820988 -5.440089 1.679613 0.701188 15.384440 7.263474 -22.003458 -2.310000 -7.125000 0.000000 0.000000 -14.412500 7.257200 12.902100 0.342009 12.004043 2.496215 88.323650 5.347993 -11.850652 -18.222434 21.001175 -4.757209 1.620013 0.390254 24.209810 -6.378485 -49.178530 5.901500 7.125000 0.000000 0.000000 59.340500 -72.975900 -43.118300 
9.831934 18.157251 -45.603170 7.667295 8.664144 1.884543 -1.177265 2.234629 1.478344 -16.752817 -14.820451 -9.613337 -2.305581 8.466313 23.901009 0.809961 2.023939 11.453528 2.649300 -10.104400 -29.315300 -1.912423 -3.084660 0.889531 19.378741 24.394472 -0.172050 0.813262 -9.911387 30.580234 7.375693 -24.426192 -17.485508 -0.071500 -1.725000 4.746100 5.875652 -1.714267 7.948826 8.830288 -1.422402 2.287634 -3.004257 -0.890025 -12.018564 2.124231 1.611554 -17.562746 -5.922438 3.472616 9.375508 -5.261100 1.355600 4.661100 -2.245829 -9.982571 1.737609 -85.783092 15.270998 -12.066019 23.303474 -23.773682 -5.436571 1.693280 0.680131 15.637304 6.945027 -21.968807 -2.173700 -7.125000 0.000000 0.000000 -14.616000 7.331900 13.075200 0.310595 11.992632 2.512646 87.880012 5.149434 -11.876272 -18.397994 21.252659 -4.854067 1.556521 0.517834 24.773347 0.365076 -49.954463 0.632600 7.125000 0.000000 0.000000 66.905800 -70.967800 -47.393600 
